# xmcd
#
# Track frame offsets:
#  150
#  14782
#  26577
#  47372
#  60975
#  67955
#  80675
#  94647
#  107405
#  117275
#  128095
#  147902
#  166387
#  183437
#  202030
#  215125
#  233740
#  249742
#  266200
#  280890
#  295062
#  304357
#  312335
#  326167
#  339385
#
# Disc length: 4689 seconds
#
# Revision: 0
# Processed by: cddbd v1.5.1PL2 Copyright (c) Steve Scherf et al.
# Submitted via: AltoMP3_Maker 3.0
#
DISCID=79124f19
DTITLE=Leadbelly - Leadbelly Vol 1
DYEAR=1900
DGENRE=
TTITLE0=In New Orleans
TTITLE1=Fannin Street
TTITLE2=Goodnight Irene
TTITLE3=New York City
TTITLE4=Cow Cow Yicky Yea
TTITLE5=Noted Rider
TTITLE6=Midnight Special
TTITLE7=DeKalb Blues
TTITLE8=How Long
TTITLE9=Good Morning Blues
TTITLE10=Matchbox Blues
TTITLE11=Frankie and Albert
TTITLE12=Which way do the Red River run?
TTITLE13=You don't know my mind
TTITLE14=Take a whiff on me
TTITLE15=CC Rider
TTITLE16=Leaving Blues
TTITLE17=Blues about New York (So Doggone Soon)
TTITLE18=Sail on little girl
TTITLE19=Worried Blues
TTITLE20=Rock Island Line
TTITLE21=On A Monday
TTITLE22=Becky Deem
TTITLE23=Sweet Mary Blues
TTITLE24=Ella Speed
EXTD=
EXTT0=
EXTT1=
EXTT2=
EXTT3=
EXTT4=
EXTT5=
EXTT6=
EXTT7=
EXTT8=
EXTT9=
EXTT10=
EXTT11=
EXTT12=
EXTT13=
EXTT14=
EXTT15=
EXTT16=
EXTT17=
EXTT18=
EXTT19=
EXTT20=
EXTT21=
EXTT22=
EXTT23=
EXTT24=
PLAYORDER=
